<svg width="16" height="17" viewBox="0 0 16 17" fill="none" xmlns="http://www.w3.org/2000/svg">
<g clip-path="url(#clip0_302_457)">
<path d="M0 12.5C0 12.9715 0.187301 13.4237 0.520699 13.7571C0.854097 14.0905 1.30628 14.2778 1.77778 14.2778H14.2222C14.6937 14.2778 15.1459 14.0905 15.4793 13.7571C15.8127 13.4237 16 12.9715 16 12.5V10.2778H0V12.5Z" fill="#4C8435"/>
<path d="M16 6.72223V4.50001C16 4.02851 15.8127 3.57633 15.4793 3.24293C15.1459 2.90953 14.6937 2.72223 14.2222 2.72223H1.77778C1.30628 2.72223 0.854097 2.90953 0.520699 3.24293C0.187301 3.57633 0 4.02851 0 4.50001L0 6.72223H16Z" fill="#FF9933"/>
<path d="M0 6.57422H16V10.4262H0V6.57422Z" fill="#F7F7F7"/>
<path d="M8 10.2778C8.98184 10.2778 9.77778 9.48185 9.77778 8.50001C9.77778 7.51817 8.98184 6.72223 8 6.72223C7.01816 6.72223 6.22222 7.51817 6.22222 8.50001C6.22222 9.48185 7.01816 10.2778 8 10.2778Z" fill="#438E96"/>
<path d="M8 10C8.82843 10 9.5 9.32843 9.5 8.5C9.5 7.67157 8.82843 7 8 7C7.17157 7 6.5 7.67157 6.5 8.5C6.5 9.32843 7.17157 10 8 10Z" fill="#F7F7F7"/>
<path d="M8.04444 7.94446L8 8.23334L7.95556 7.94446L8 7.07779L8.04444 7.94446ZM7.632 7.12623L7.81333 7.97468L7.93111 8.24223L7.89911 7.95201L7.632 7.12623ZM7.28889 7.26846L7.68356 8.0409L7.86667 8.2689L7.76089 7.99646L7.28889 7.26846ZM6.99422 7.49423L7.57556 8.13868L7.81156 8.31157L7.63867 8.07557L6.99422 7.49423ZM6.76844 7.7889L7.49644 8.2609L7.76889 8.36668L7.54089 8.18357L6.76844 7.7889ZM6.62622 8.13201L7.452 8.39912L7.74222 8.43112L7.47467 8.31334L6.62622 8.13201ZM6.57778 8.50001L7.44444 8.54446L7.73333 8.50001L7.44444 8.45557L6.57778 8.50001ZM6.62622 8.86801L7.47467 8.68668L7.74222 8.5689L7.452 8.6009L6.62622 8.86801ZM6.76844 9.21112L7.54089 8.81646L7.76889 8.63334L7.49644 8.73912L6.76844 9.21112ZM6.99422 9.50579L7.63867 8.92446L7.81156 8.68846L7.57556 8.86134L6.99422 9.50579ZM7.28889 9.73157L7.76089 9.00357L7.86667 8.73112L7.68356 8.95912L7.28889 9.73157ZM7.632 9.87379L7.89911 9.04801L7.93111 8.75779L7.81333 9.02534L7.632 9.87379ZM8 9.92223L8.04444 9.05557L8 8.76668L7.95556 9.05557L8 9.92223ZM8.368 9.87379L8.18667 9.02534L8.06889 8.75779L8.10089 9.04801L8.368 9.87379ZM8.71111 9.73157L8.31644 8.95912L8.13333 8.73112L8.23911 9.00357L8.71111 9.73157ZM9.00578 9.50579L8.42444 8.86134L8.18844 8.68846L8.36133 8.92446L9.00578 9.50579ZM9.23156 9.21112L8.50356 8.73912L8.23111 8.63334L8.45911 8.81646L9.23156 9.21112ZM9.37378 8.86801L8.548 8.6009L8.25778 8.5689L8.52533 8.68668L9.37378 8.86801ZM9.42222 8.50001L8.55556 8.45557L8.26667 8.50001L8.55556 8.54446L9.42222 8.50001ZM9.37378 8.13201L8.52533 8.31334L8.25778 8.43112L8.548 8.39912L9.37378 8.13201ZM9.23156 7.7889L8.45911 8.18357L8.23111 8.36668L8.50356 8.2609L9.23156 7.7889ZM9.00578 7.49423L8.36133 8.07557L8.18844 8.31157L8.42444 8.13868L9.00578 7.49423ZM8.71111 7.26846L8.23911 7.99646L8.13333 8.2689L8.31644 8.0409L8.71111 7.26846ZM8.368 7.12623L8.10089 7.95201L8.06889 8.24223L8.18667 7.97468L8.368 7.12623Z" fill="#438E96"/>
<path d="M7.80445 7.10399C7.85354 7.10399 7.89333 7.06419 7.89333 7.0151C7.89333 6.96601 7.85354 6.92621 7.80445 6.92621C7.75535 6.92621 7.71556 6.96601 7.71556 7.0151C7.71556 7.06419 7.75535 7.10399 7.80445 7.10399Z" fill="#438E96"/>
<path d="M7.42667 7.2053C7.47576 7.2053 7.51556 7.16551 7.51556 7.11642C7.51556 7.06732 7.47576 7.02753 7.42667 7.02753C7.37758 7.02753 7.33778 7.06732 7.33778 7.11642C7.33778 7.16551 7.37758 7.2053 7.42667 7.2053Z" fill="#438E96"/>
<path d="M7.088 7.40043C7.1371 7.40043 7.17689 7.36064 7.17689 7.31155C7.17689 7.26245 7.1371 7.22266 7.088 7.22266C7.03891 7.22266 6.99911 7.26245 6.99911 7.31155C6.99911 7.36064 7.03891 7.40043 7.088 7.40043Z" fill="#438E96"/>
<path d="M6.81156 7.67686C6.86065 7.67686 6.90045 7.63707 6.90045 7.58797C6.90045 7.53888 6.86065 7.49908 6.81156 7.49908C6.76246 7.49908 6.72267 7.53888 6.72267 7.58797C6.72267 7.63707 6.76246 7.67686 6.81156 7.67686Z" fill="#438E96"/>
<path d="M6.61645 8.01555C6.66554 8.01555 6.70533 7.97575 6.70533 7.92666C6.70533 7.87756 6.66554 7.83777 6.61645 7.83777C6.56735 7.83777 6.52756 7.87756 6.52756 7.92666C6.52756 7.97575 6.56735 8.01555 6.61645 8.01555Z" fill="#438E96"/>
<path d="M6.51511 8.39332C6.5642 8.39332 6.604 8.35353 6.604 8.30443C6.604 8.25534 6.5642 8.21555 6.51511 8.21555C6.46602 8.21555 6.42622 8.25534 6.42622 8.30443C6.42622 8.35353 6.46602 8.39332 6.51511 8.39332Z" fill="#438E96"/>
<path d="M6.51511 8.78444C6.5642 8.78444 6.604 8.74464 6.604 8.69555C6.604 8.64646 6.5642 8.60666 6.51511 8.60666C6.46602 8.60666 6.42622 8.64646 6.42622 8.69555C6.42622 8.74464 6.46602 8.78444 6.51511 8.78444Z" fill="#438E96"/>
<path d="M6.61645 9.16221C6.66554 9.16221 6.70533 9.12242 6.70533 9.07333C6.70533 9.02423 6.66554 8.98444 6.61645 8.98444C6.56735 8.98444 6.52756 9.02423 6.52756 9.07333C6.52756 9.12242 6.56735 9.16221 6.61645 9.16221Z" fill="#438E96"/>
<path d="M6.81156 9.50087C6.86065 9.50087 6.90045 9.46107 6.90045 9.41198C6.90045 9.36289 6.86065 9.32309 6.81156 9.32309C6.76246 9.32309 6.72267 9.36289 6.72267 9.41198C6.72267 9.46107 6.76246 9.50087 6.81156 9.50087Z" fill="#438E96"/>
<path d="M7.088 9.77733C7.1371 9.77733 7.17689 9.73753 7.17689 9.68844C7.17689 9.63934 7.1371 9.59955 7.088 9.59955C7.03891 9.59955 6.99911 9.63934 6.99911 9.68844C6.99911 9.73753 7.03891 9.77733 7.088 9.77733Z" fill="#438E96"/>
<path d="M7.42667 9.97242C7.47576 9.97242 7.51556 9.93263 7.51556 9.88354C7.51556 9.83444 7.47576 9.79465 7.42667 9.79465C7.37758 9.79465 7.33778 9.83444 7.33778 9.88354C7.33778 9.93263 7.37758 9.97242 7.42667 9.97242Z" fill="#438E96"/>
<path d="M7.80445 10.0738C7.85354 10.0738 7.89333 10.034 7.89333 9.98488C7.89333 9.93579 7.85354 9.896 7.80445 9.896C7.75535 9.896 7.71556 9.93579 7.71556 9.98488C7.71556 10.034 7.75535 10.0738 7.80445 10.0738Z" fill="#438E96"/>
<path d="M8.19556 10.0738C8.24465 10.0738 8.28444 10.034 8.28444 9.98488C8.28444 9.93579 8.24465 9.896 8.19556 9.896C8.14646 9.896 8.10667 9.93579 8.10667 9.98488C8.10667 10.034 8.14646 10.0738 8.19556 10.0738Z" fill="#438E96"/>
<path d="M8.57334 9.97242C8.62243 9.97242 8.66223 9.93263 8.66223 9.88354C8.66223 9.83444 8.62243 9.79465 8.57334 9.79465C8.52424 9.79465 8.48445 9.83444 8.48445 9.88354C8.48445 9.93263 8.52424 9.97242 8.57334 9.97242Z" fill="#438E96"/>
<path d="M8.912 9.77733C8.96109 9.77733 9.00089 9.73753 9.00089 9.68844C9.00089 9.63934 8.96109 9.59955 8.912 9.59955C8.86291 9.59955 8.82311 9.63934 8.82311 9.68844C8.82311 9.73753 8.86291 9.77733 8.912 9.77733Z" fill="#438E96"/>
<path d="M9.18844 9.50087C9.23754 9.50087 9.27733 9.46107 9.27733 9.41198C9.27733 9.36289 9.23754 9.32309 9.18844 9.32309C9.13935 9.32309 9.09956 9.36289 9.09956 9.41198C9.09956 9.46107 9.13935 9.50087 9.18844 9.50087Z" fill="#438E96"/>
<path d="M9.38356 9.16221C9.43265 9.16221 9.47245 9.12242 9.47245 9.07333C9.47245 9.02423 9.43265 8.98444 9.38356 8.98444C9.33447 8.98444 9.29467 9.02423 9.29467 9.07333C9.29467 9.12242 9.33447 9.16221 9.38356 9.16221Z" fill="#438E96"/>
<path d="M9.48489 8.78444C9.53398 8.78444 9.57378 8.74464 9.57378 8.69555C9.57378 8.64646 9.53398 8.60666 9.48489 8.60666C9.4358 8.60666 9.396 8.64646 9.396 8.69555C9.396 8.74464 9.4358 8.78444 9.48489 8.78444Z" fill="#438E96"/>
<path d="M9.48489 8.39332C9.53398 8.39332 9.57378 8.35353 9.57378 8.30443C9.57378 8.25534 9.53398 8.21555 9.48489 8.21555C9.4358 8.21555 9.396 8.25534 9.396 8.30443C9.396 8.35353 9.4358 8.39332 9.48489 8.39332Z" fill="#438E96"/>
<path d="M9.38356 8.01555C9.43265 8.01555 9.47245 7.97575 9.47245 7.92666C9.47245 7.87756 9.43265 7.83777 9.38356 7.83777C9.33447 7.83777 9.29467 7.87756 9.29467 7.92666C9.29467 7.97575 9.33447 8.01555 9.38356 8.01555Z" fill="#438E96"/>
<path d="M9.18844 7.67686C9.23754 7.67686 9.27733 7.63707 9.27733 7.58797C9.27733 7.53888 9.23754 7.49908 9.18844 7.49908C9.13935 7.49908 9.09956 7.53888 9.09956 7.58797C9.09956 7.63707 9.13935 7.67686 9.18844 7.67686Z" fill="#438E96"/>
<path d="M8.912 7.40043C8.96109 7.40043 9.00089 7.36064 9.00089 7.31155C9.00089 7.26245 8.96109 7.22266 8.912 7.22266C8.86291 7.22266 8.82311 7.26245 8.82311 7.31155C8.82311 7.36064 8.86291 7.40043 8.912 7.40043Z" fill="#438E96"/>
<path d="M8.57334 7.2053C8.62243 7.2053 8.66223 7.16551 8.66223 7.11642C8.66223 7.06732 8.62243 7.02753 8.57334 7.02753C8.52424 7.02753 8.48445 7.06732 8.48445 7.11642C8.48445 7.16551 8.52424 7.2053 8.57334 7.2053Z" fill="#438E96"/>
<path d="M8.19556 7.10399C8.24465 7.10399 8.28444 7.06419 8.28444 7.0151C8.28444 6.96601 8.24465 6.92621 8.19556 6.92621C8.14646 6.92621 8.10667 6.96601 8.10667 7.0151C8.10667 7.06419 8.14646 7.10399 8.19556 7.10399Z" fill="#438E96"/>
<path d="M8 8.89998C8.22092 8.89998 8.4 8.72089 8.4 8.49998C8.4 8.27906 8.22092 8.09998 8 8.09998C7.77909 8.09998 7.6 8.27906 7.6 8.49998C7.6 8.72089 7.77909 8.89998 8 8.89998Z" fill="#438E96"/>
</g>
<defs>
<clipPath id="clip0_302_457">
<rect width="16" height="16" fill="white" transform="translate(0 0.5)"/>
</clipPath>
</defs>
</svg>
