<svg width="23" height="22" viewBox="0 0 23 22" fill="none" xmlns="http://www.w3.org/2000/svg">
<path fill-rule="evenodd" clip-rule="evenodd" d="M4.16667 1.46667H18.8333C19.4168 1.46667 19.9764 1.69845 20.389 2.11103C20.8016 2.52361 21.0333 3.08319 21.0333 3.66667V18.3333C21.0333 18.9168 20.8016 19.4764 20.389 19.889C19.9764 20.3015 19.4168 20.5333 18.8333 20.5333H4.16667C3.5832 20.5333 3.02362 20.3015 2.61104 19.889C2.19846 19.4764 1.96667 18.9168 1.96667 18.3333V3.66667C1.96667 3.08319 2.19846 2.52361 2.61104 2.11103C3.02362 1.69845 3.5832 1.46667 4.16667 1.46667ZM4.16667 2.93333C3.97218 2.93333 3.78566 3.0106 3.64813 3.14812C3.5106 3.28565 3.43334 3.47218 3.43334 3.66667V12.2672L5.90027 9.80027C5.9628 9.73756 6.0373 9.68807 6.11935 9.65476C6.2014 9.62144 6.28931 9.60498 6.37785 9.60635C6.46639 9.60772 6.55376 9.62689 6.63473 9.66272C6.71571 9.69856 6.78865 9.75032 6.84921 9.81493L12.0485 15.3853L16.1669 11.2669C16.2907 11.1433 16.4584 11.0739 16.6333 11.0739C16.8082 11.0739 16.976 11.1433 17.0997 11.2669L19.5667 13.7339V3.66667C19.5667 3.47218 19.4894 3.28565 19.3519 3.14812C19.2144 3.0106 19.0278 2.93333 18.8333 2.93333H4.16667ZM3.43334 18.3333V14.1328L6.35054 11.2171L11.5455 16.7816L13.6135 19.0667H4.16667C3.97218 19.0667 3.78566 18.9894 3.64813 18.8519C3.5106 18.7144 3.43334 18.5278 3.43334 18.3333ZM18.8333 19.0667H15.394L12.9417 16.3577L16.6333 12.6661L19.5667 15.5995V18.3333C19.5667 18.5278 19.4894 18.7144 19.3519 18.8519C19.2144 18.9894 19.0278 19.0667 18.8333 19.0667ZM10.2533 8.06667C10.2533 7.73603 10.3847 7.41894 10.6185 7.18514C10.8523 6.95135 11.1694 6.82 11.5 6.82C11.8306 6.82 12.1477 6.95135 12.3815 7.18514C12.6153 7.41894 12.7467 7.73603 12.7467 8.06667C12.7467 8.3973 12.6153 8.7144 12.3815 8.94819C12.1477 9.18199 11.8306 9.31333 11.5 9.31333C11.1694 9.31333 10.8523 9.18199 10.6185 8.94819C10.3847 8.7144 10.2533 8.3973 10.2533 8.06667ZM11.5 5.5C11.1629 5.5 10.8292 5.56639 10.5178 5.69538C10.2064 5.82436 9.92344 6.01342 9.6851 6.25176C9.44676 6.4901 9.2577 6.77304 9.12872 7.08445C8.99973 7.39585 8.93334 7.72961 8.93334 8.06667C8.93334 8.40373 8.99973 8.73749 9.12872 9.04889C9.2577 9.36029 9.44676 9.64324 9.6851 9.88157C9.92344 10.1199 10.2064 10.309 10.5178 10.438C10.8292 10.5669 11.1629 10.6333 11.5 10.6333C12.1807 10.6333 12.8336 10.3629 13.3149 9.88157C13.7963 9.40023 14.0667 8.74739 14.0667 8.06667C14.0667 7.38594 13.7963 6.7331 13.3149 6.25176C12.8336 5.77042 12.1807 5.5 11.5 5.5Z" fill="#438E96"/>
</svg>
